<svg width="117" height="36" viewBox="0 0 117 36" fill="none" xmlns="http://www.w3.org/2000/svg">
<g clip-path="url(#clip0_60_259880)">
<path d="M45.5367 18.87L44.0061 18.7295C43.0033 18.6417 42.5986 18.2905 42.5986 17.6759C42.5986 16.9559 43.2144 16.4817 44.4107 16.4817C45.5367 16.4817 46.0997 16.9734 46.1877 17.7637H49.7768C49.5481 15.4281 47.8943 13.7773 44.5163 13.7773C40.9976 13.7773 39.0623 15.5686 39.0623 17.9393C39.0623 20.152 40.2763 21.3637 43.2848 21.6095L44.7978 21.7325C45.9766 21.8203 46.3988 22.2242 46.3988 22.9266C46.3988 23.6642 45.783 24.2086 44.5163 24.2086C43.3375 24.2086 42.6338 23.6817 42.5106 22.751H38.728C39.0623 25.2973 40.8568 26.9832 44.4987 26.9832C48.035 26.9832 49.9879 25.1744 49.9879 22.7334C49.9879 20.3627 48.686 19.151 45.5367 18.87Z" fill="#18181B"/>
<path d="M33.1511 13.7773C30.8991 13.7773 29.562 14.9539 28.9286 17.3598H28.6999V13.9881H25.146V26.7725H28.9286V19.3266C28.9286 17.6232 29.8083 16.6925 31.3917 16.6925C32.9575 16.6925 33.7316 17.6583 33.7316 19.3091V26.7725H37.5143V18.6417C37.5143 15.551 35.8957 13.7773 33.1511 13.7773Z" fill="#18181B"/>
<path d="M21.4702 9C20.1859 9 19.2183 9.84293 19.2183 11.1249C19.2183 12.4068 20.1683 13.2498 21.4526 13.2498C22.737 13.2498 23.687 12.4068 23.687 11.1249C23.687 9.86049 22.737 9 21.4702 9Z" fill="#18181B"/>
<path d="M23.3524 13.9883H19.5698V26.7727H23.3524V13.9883Z" fill="#18181B"/>
<path d="M55.9358 11.2832H53.5255C53.4551 13.3378 52.5755 14.2334 50.605 14.3915V16.9905H52.1532V22.61C52.1532 25.4373 53.7718 26.9827 56.9914 26.9827C57.5969 26.9829 58.1999 26.9062 58.786 26.7544V23.7164C58.4837 23.7665 58.1775 23.79 57.8711 23.7866C56.5164 23.7866 55.9358 23.2773 55.9358 21.8549V16.9905H59.261V13.9876H55.9358V11.2832Z" fill="#18181B"/>
<path d="M115.93 16.9905V13.9876H112.604V11.2832H110.229C110.176 12.7056 109.754 13.531 108.822 13.9876V22.61C108.822 25.4373 110.44 26.9827 113.66 26.9827C114.265 26.9829 114.868 26.9062 115.455 26.7544V23.7164C115.152 23.7665 114.846 23.79 114.54 23.7866C113.185 23.7866 112.604 23.2773 112.604 21.8549V16.9905H115.93Z" fill="#18181B"/>
<path d="M103.544 17.5512H103.315V13.9864H99.814V26.7708H103.597V19.8517C103.597 17.9376 104.459 17.1298 106.429 17.1298C106.837 17.1356 107.243 17.1767 107.643 17.2527V13.9512C107.298 13.8305 106.935 13.7711 106.57 13.7756C105.039 13.7756 103.984 14.6537 103.544 17.5512Z" fill="#18181B"/>
<path d="M79.3883 23.752C77.6114 23.752 76.3271 22.5754 76.3271 20.2925C76.3271 18.2554 77.5234 16.991 79.3532 16.991C80.919 16.991 81.8163 17.8691 82.0802 19.2739H85.9156C85.5461 15.99 83.1886 13.7773 79.4059 13.7773C75.2539 13.7773 72.5269 16.5871 72.5269 20.433C72.5269 24.4193 75.1483 26.9832 79.3532 26.9832C83.171 26.9832 85.6517 24.8583 86.0035 21.4164H82.1681C81.957 22.8212 80.9894 23.752 79.3883 23.752Z" fill="#18181B"/>
<path d="M65.8229 13.7773C62.5329 13.7773 60.5449 15.393 60.193 18.2905H63.8173C63.9404 17.2895 64.5914 16.7627 65.735 16.7627C66.8961 16.7627 67.4239 17.2895 67.4239 18.0447C67.4239 18.6769 67.0193 19.0105 65.9813 19.2037L64.2571 19.5198C61.2134 20.0817 60.0522 21.3286 60.0522 23.313C60.0522 25.5783 61.6533 27.0008 63.8701 27.0008C65.6822 27.0008 66.861 26.1578 67.4064 24.0505H67.6351V26.7725H71.2066V18.431C71.2066 15.5334 69.4648 13.7773 65.8229 13.7773ZM65.4007 24.4193C64.3803 24.4193 63.7997 23.8749 63.7997 23.0671C63.7997 22.3998 64.2043 21.9432 65.2072 21.7149L65.9109 21.5569C66.5179 21.4164 66.9894 21.2293 67.4239 20.8544V22.2066C67.4239 23.7695 66.597 24.4193 65.4007 24.4193Z" fill="#18181B"/>
<path d="M92.7057 13.7773C89.4158 13.7773 87.4277 15.393 87.0758 18.2905H90.7001C90.8232 17.2895 91.4742 16.7627 92.6178 16.7627C93.779 16.7627 94.3068 17.2895 94.3068 18.0447C94.3068 18.6769 93.9021 19.0105 92.8641 19.2037L91.1399 19.5198C88.0962 20.0817 86.9351 21.3286 86.9351 23.313C86.9351 25.5783 88.5361 27.0008 90.7529 27.0008C92.565 27.0008 93.7438 26.1578 94.2892 24.0505H94.5179V26.7725H98.0894V18.431C98.0894 15.5334 96.3476 13.7773 92.7057 13.7773ZM92.2835 24.4193C91.2631 24.4193 90.6825 23.8749 90.6825 23.0671C90.6825 22.3998 91.0871 21.9432 92.09 21.7149L92.7937 21.5569C93.4007 21.4164 93.8713 21.2293 94.3068 20.8544V22.2066C94.3068 23.7695 93.4799 24.4193 92.2835 24.4193Z" fill="#18181B"/>
<path d="M13.2032 12.0593C12.4247 12.0593 11.8705 12.3974 11.3559 13.1314L9.88418 15.2466V9.21094H6.36547V15.2466L4.89113 13.1314C4.37916 12.3974 3.82496 12.0593 3.04381 12.0593C1.87295 12.0593 1.0874 12.9242 1.0874 13.9902C1.0874 14.9033 1.51581 15.4978 2.42451 16.0817L8.12483 19.7475L13.8251 16.0817C14.7338 15.4978 15.1622 14.9025 15.1622 13.9902C15.1622 12.9242 14.3767 12.0593 13.2032 12.0593Z" fill="#0AAD0A"/>
<path d="M8.12407 20.625C11.5126 20.625 14.2897 23.1494 14.2818 26.7713H1.96632C1.95928 23.1511 4.73555 20.625 8.12407 20.625Z" fill="#FF7009"/>
</g>
<defs>
<clipPath id="clip0_60_259880">
<rect width="115.714" height="18" fill="white" transform="translate(0.628418 9)"/>
</clipPath>
</defs>
</svg>
